<svg version="1.1" xmlns="http://www.w3.org/2000/svg" style="display: block;" viewBox="0 0 2048 2048" width="1024" height="1024">
<defs>
	<linearGradient id="Gradient1" gradientUnits="userSpaceOnUse" x1="1222.96" y1="548.289" x2="1107.75" y2="500.66">
		<stop class="stop0" offset="0" stop-opacity="1" stop-color="rgb(214,225,227)"/>
		<stop class="stop1" offset="1" stop-opacity="1" stop-color="rgb(251,245,244)"/>
	</linearGradient>
</defs>
<path transform="translate(0,0)" fill="rgb(253,252,246)" d="M 0 0 L 2048 0 L 2048 2048 L 0 2048 L 0 0 z"/>
<path transform="translate(0,0)" fill="rgb(183,213,220)" d="M 1515.3 619.063 C 1529.64 627.069 1543.47 639.991 1556.04 650.649 C 1602.73 690.228 1639.71 725.015 1677.38 773.712 C 1686.8 785.895 1698.14 800.352 1704.19 814.514 C 1683.02 811.41 1662.07 806.926 1640.92 803.71 A 640.34 640.34 0 0 0 1555.49 796.846 C 1521.52 796.525 1487.89 801.791 1454.1 801.739 L 1452.07 801.725 C 1487.51 748.356 1513.19 683.761 1515.3 619.063 z"/>
<path transform="translate(0,0)" fill="rgb(254,229,167)" d="M 1452.07 801.725 L 1454.1 801.739 C 1487.89 801.791 1521.52 796.525 1555.49 796.846 A 640.34 640.34 0 0 1 1640.92 803.71 C 1662.07 806.926 1683.02 811.41 1704.19 814.514 L 1705.14 815.422 C 1722.47 819.284 1739.23 824.738 1756.01 830.495 C 1809.64 848.894 1852.26 871.217 1893.87 910.582 C 1910.75 926.553 1925.75 943.13 1938.3 962.816 C 1973.9 1018.64 1983.42 1087.35 1969.05 1151.47 C 1944.35 1261.64 1860.01 1349.46 1776.36 1420.01 C 1754.58 1438.37 1732.15 1458.03 1707.98 1473.18 C 1707.15 1473.7 1706.29 1474.19 1705.42 1474.66 C 1686.79 1441.74 1672.35 1405.68 1656.18 1371.47 L 1573.62 1198.09 C 1562.28 1177.48 1552.94 1155.31 1542.97 1133.99 C 1526.2 1098.16 1509.56 1062.55 1493.49 1026.39 L 1413.09 848.628 C 1427.52 833.86 1439.97 818.407 1452.07 801.725 z"/>
<path transform="translate(0,0)" fill="rgb(177,209,218)" d="M 1452.07 801.725 L 1454.1 801.739 C 1487.89 801.791 1521.52 796.525 1555.49 796.846 A 640.34 640.34 0 0 1 1640.92 803.71 C 1662.07 806.926 1683.02 811.41 1704.19 814.514 L 1705.14 815.422 C 1736.62 881.593 1754.3 952.046 1728.75 1023.86 C 1722.07 1042.63 1713.21 1061.53 1702.33 1078.22 C 1672.37 1124.16 1620.38 1169.89 1573.62 1198.09 C 1562.28 1177.48 1552.94 1155.31 1542.97 1133.99 C 1526.2 1098.16 1509.56 1062.55 1493.49 1026.39 L 1413.09 848.628 C 1427.52 833.86 1439.97 818.407 1452.07 801.725 z"/>
<path transform="translate(0,0)" fill="rgb(183,213,220)" d="M 319.482 1423.99 C 305.577 1418.36 276.611 1380.48 266.432 1368.09 C 151.348 1228.02 61.4511 1053.74 79.9144 867.276 C 92.3188 742.002 147.333 629.007 214.393 524.278 C 235.76 490.908 259.323 459.026 280.157 425.263 C 314.559 369.51 339.84 308.544 391.872 266.081 C 414.366 247.725 439.676 233.78 465.879 221.525 C 485.962 212.133 506.306 203.361 527.488 196.722 C 597.493 174.782 674.282 170.827 746.877 178 A 888.959 888.959 0 0 1 1166.89 334.173 C 1183.38 345.502 1221.4 371.114 1233.21 385.518 C 1208.25 391.006 1184.31 400.404 1161.4 411.595 C 1154.91 400.358 1146.41 389.955 1138.12 379.991 A 297.353 297.353 0 0 0 983.415 281.364 C 909.63 261.688 830.879 269.027 764.351 307.701 C 695.572 347.684 647.825 413.297 627.962 489.996 C 609.54 561.129 623.217 643.285 660.616 706.029 C 667.013 716.762 674.2 726.727 681.967 736.489 C 687.411 743.332 693.605 750.058 698.127 757.523 C 690.306 776.782 678.201 795.09 667.928 813.178 L 616.683 904.292 L 527.789 1062.71 C 515.626 1084.87 503.188 1107.02 491.341 1129.35 C 487.381 1136.81 484.282 1144.87 480.109 1152.19 C 478.434 1155.12 476.097 1157.53 473.762 1159.94 C 477.696 1169.51 493.452 1196.58 490.772 1205.54 C 490.095 1207.81 489.394 1207.53 487.551 1208.24 C 476.141 1206.17 466.062 1197.78 454.525 1194.72 C 443.519 1210.77 434.549 1229.1 425.171 1246.18 A 950.592 950.592 0 0 1 390.925 1303.38 C 394.652 1311.85 405.569 1331.99 401.331 1340.66 C 399.975 1343.43 396.959 1344.83 394.105 1345.5 C 385.272 1347.57 374.397 1345.64 365.427 1344.7 C 349.098 1370.4 334.659 1397.58 319.482 1423.99 z"/>
<path transform="translate(0,0)" fill="rgb(61,62,60)" d="M 698.127 757.523 C 693.605 750.058 687.411 743.332 681.967 736.489 C 674.2 726.727 667.013 716.762 660.616 706.029 C 623.217 643.285 609.54 561.129 627.962 489.996 C 647.825 413.297 695.572 347.684 764.351 307.701 C 830.879 269.027 909.63 261.688 983.415 281.364 A 297.353 297.353 0 0 1 1138.12 379.991 C 1146.41 389.955 1154.91 400.358 1161.4 411.595 C 1184.31 400.404 1208.25 391.006 1233.21 385.518 C 1291.1 373.919 1355.47 375.842 1406.01 409.809 C 1420.25 419.376 1432.26 431.448 1442.3 445.326 C 1468.19 481.094 1506.48 572.863 1514.51 614.851 L 1515.3 619.063 C 1513.19 683.761 1487.51 748.356 1452.07 801.725 C 1439.97 818.407 1427.52 833.86 1413.09 848.628 L 1493.49 1026.39 C 1509.56 1062.55 1526.2 1098.16 1542.97 1133.99 C 1552.94 1155.31 1562.28 1177.48 1573.62 1198.09 L 1656.18 1371.47 C 1672.35 1405.68 1686.79 1441.74 1705.42 1474.66 C 1719.84 1503 1732.82 1532.04 1747.37 1560.3 C 1758.8 1582.5 1776 1604.13 1782.2 1628.47 C 1786.12 1643.85 1781.84 1702.96 1776.97 1718.35 C 1772.07 1733.83 1757.21 1749.56 1742.83 1756.91 C 1719.37 1768.92 1665.3 1755.78 1640.36 1748.3 C 1625.24 1728.18 1616.65 1703.47 1601.53 1683.18 C 1592.32 1687.8 1541.87 1718.07 1536.47 1716.01 C 1529.9 1713.5 1507.78 1669.07 1505 1661.29 C 1504.45 1659.76 1504.2 1658.32 1504.1 1656.71 C 1509.57 1650.3 1523.24 1647.25 1531.11 1644.43 C 1528.86 1641.24 1526.41 1638.08 1524.56 1634.65 C 1514.85 1640.1 1488.87 1657.95 1479.06 1655.87 C 1474 1652 1470.89 1644.71 1467.86 1639.14 C 1451.71 1645.33 1434.87 1649.88 1418.31 1654.83 C 1391.26 1662.92 1364.36 1670.92 1337.57 1679.83 A 5452.44 5452.44 0 0 1 1233.47 1713.11 C 1119.14 1748.87 1002.14 1777.83 882.713 1749.52 C 861.019 1744.37 839.845 1738.23 819.433 1729.12 A 323.153 323.153 0 0 1 717.025 1656.39 C 712.783 1651.92 706.5 1646.31 703.546 1641 L 702.05 1640.27 C 624.641 1632.17 565.759 1609.39 499.673 1568.12 C 488.623 1561.22 478.533 1552.99 467.633 1545.87 C 457.926 1559.79 451.924 1576.67 441.429 1589.87 C 439.103 1592.8 436.555 1595.11 433.378 1597.08 C 424.06 1602.86 412.94 1606.57 402.977 1611.18 C 387.829 1618.18 372.744 1626.41 357.098 1632.15 C 352.309 1633.91 347.382 1635.26 342.314 1635.9 C 329.345 1637.52 314.376 1635.33 303.984 1627 C 297.248 1621.61 292.608 1614.17 289.933 1606.02 C 285.229 1591.7 285.002 1575.12 283.639 1560.17 L 277.997 1496.42 C 290.132 1471.66 305.988 1448.11 319.482 1423.99 C 334.659 1397.58 349.098 1370.4 365.427 1344.7 C 374.397 1345.64 385.272 1347.57 394.105 1345.5 C 396.959 1344.83 399.975 1343.43 401.331 1340.66 C 405.569 1331.99 394.652 1311.85 390.925 1303.38 A 950.592 950.592 0 0 0 425.171 1246.18 C 434.549 1229.1 443.519 1210.77 454.525 1194.72 C 466.062 1197.78 476.141 1206.17 487.551 1208.24 C 489.394 1207.53 490.095 1207.81 490.772 1205.54 C 493.452 1196.58 477.696 1169.51 473.762 1159.94 C 476.097 1157.53 478.434 1155.12 480.109 1152.19 C 484.282 1144.87 487.381 1136.81 491.341 1129.35 C 503.188 1107.02 515.626 1084.87 527.789 1062.71 L 616.683 904.292 L 667.928 813.178 C 678.201 795.09 690.306 776.782 698.127 757.523 z"/>
<path transform="translate(0,0)" fill="rgb(253,252,246)" d="M 1473.31 543.254 C 1475.39 543.514 1477.33 543.62 1479.02 544.994 C 1486.26 550.889 1495.22 578.687 1496.03 587.994 C 1479.21 574.127 1477.19 563.576 1473.31 543.254 z"/>
<path transform="translate(0,0)" fill="rgb(253,252,246)" d="M 1405.72 421.792 C 1413.99 425.218 1422.7 435.914 1428.29 442.773 C 1437.12 453.608 1452.24 475.398 1450.78 489.885 C 1439.51 488.009 1427.37 454.549 1421.8 444.673 C 1417.15 436.434 1411.7 429.103 1405.72 421.792 z"/>
<path transform="translate(0,0)" fill="rgb(254,229,167)" d="M 1473.76 1106.5 C 1474.23 1106.75 1474.72 1106.95 1475.16 1107.24 C 1480.78 1110.94 1539.81 1248.04 1541.95 1260.8 C 1531.82 1243.67 1471.65 1121.2 1473.76 1106.5 z"/>
<path transform="translate(0,0)" fill="rgb(183,213,220)" d="M 1167.07 421.457 C 1191.75 408.787 1220.63 399.815 1247.73 394.283 C 1256.04 405.682 1275.51 412.314 1281.35 420.891 C 1244.89 419.173 1213 429.184 1179.38 441.847 C 1176 434.772 1171.26 428.098 1167.07 421.457 z"/>
<path transform="translate(0,0)" fill="rgb(253,252,246)" d="M 1347.98 397.996 C 1375.27 405.408 1397.33 420.923 1411.55 445.631 C 1419.04 458.647 1424.44 472.698 1430.63 486.348 C 1442.13 511.729 1453.06 535.446 1461.53 562.085 C 1452.6 563.52 1432.34 532.074 1422.2 527.451 C 1411.51 500.266 1388.55 432.872 1371.54 414.199 C 1365 407.01 1356.45 402.499 1347.98 397.996 z"/>
<path transform="translate(0,0)" fill="rgb(183,213,220)" d="M 1172.62 913.895 C 1135.65 916.511 1085.88 910.409 1050.16 900.439 C 1035.92 896.466 1002.89 883.628 995.922 869.744 C 995.097 868.099 995.264 868.84 995.966 866.895 C 1003.42 863.166 1012.88 861.881 1021.01 859.987 C 1029.98 867.036 1039.59 873.26 1050.18 877.576 C 1078.18 888.981 1132.18 894.853 1163.28 897.164 C 1161.95 903.315 1153.16 905.554 1153.09 911.629 C 1158.74 914.65 1168.04 910.3 1172.62 913.895 z"/>
<path transform="translate(0,0)" fill="rgb(183,213,220)" d="M 947.755 572.826 C 947.688 579.896 940.408 594.305 938.098 602.002 A 285.286 285.286 0 0 0 930.503 635.351 C 928.169 650.193 922.106 671.815 923.885 686.276 C 925.659 700.701 934.781 717.057 940.481 730.528 A 5976.76 5976.76 0 0 0 966.729 792.497 C 972.098 804.743 978.168 816.649 983.291 829.004 L 966.534 832.481 L 965.079 832.105 C 956.484 819.687 910.915 710.226 908.214 695.852 C 902.625 666.12 930.031 598.283 947.755 572.826 z"/>
<path transform="translate(0,0)" fill="rgb(183,213,220)" d="M 1422.2 527.451 C 1432.34 532.074 1452.6 563.52 1461.53 562.085 C 1466.46 575.273 1470.55 589.359 1471.82 603.425 C 1475.13 640.108 1461.33 681.481 1446.19 714.561 C 1427.83 754.679 1404.26 797.349 1372.33 828.256 C 1370.08 826.114 1368.36 824.316 1366.85 821.596 C 1367.11 820.846 1367.51 819.777 1367.7 819.037 C 1368.33 816.58 1368.83 814.312 1369.64 811.886 L 1368.48 811.803 L 1369.41 811.216 C 1367.46 811.948 1365.57 812.778 1363.67 813.639 L 1361.25 812.69 C 1364.84 810.975 1368.74 809.65 1372.44 808.169 C 1382.7 795.052 1391.52 780.817 1400.34 766.714 C 1426.88 724.256 1449.13 681.124 1462.76 632.775 C 1455.9 620.246 1451.85 605.884 1446.79 592.556 C 1438.54 570.851 1429.9 549.364 1422.2 527.451 z"/>
<path transform="translate(0,0)" fill="rgb(253,252,246)" d="M 1247.73 394.283 C 1277.39 388.769 1304.39 391.48 1332.55 402.038 C 1340.63 405.066 1349.1 408.456 1356.25 413.376 C 1377.92 428.289 1395.36 480.816 1403.75 505.902 C 1398.56 507.572 1381.21 490.767 1371.66 487.007 C 1366.57 477.204 1360.94 467.653 1354.15 458.921 C 1335.74 435.25 1310.51 424.627 1281.35 420.891 C 1275.51 412.314 1256.04 405.682 1247.73 394.283 z"/>
<path transform="translate(0,0)" fill="url(#Gradient1)" d="M 1152.86 427.833 C 1157.81 433.067 1161.75 440.846 1165.92 446.858 C 1162.5 448.621 1158.87 450.43 1157.17 454.034 C 1157.39 456.922 1157.94 457.541 1159.57 459.989 C 1162.91 461.188 1164.98 460.406 1168.44 459.834 C 1171.79 474.026 1178.35 488.175 1183 502.102 C 1186.32 501.476 1190.42 500.168 1193.64 501.372 C 1204.9 517.497 1204.62 581.007 1204.1 601.912 C 1198.44 605.458 1192.42 608.525 1186.55 611.719 L 1171.19 619.947 C 1173.89 577.666 1169.12 534.345 1155.14 494.281 C 1150.67 481.47 1145.9 468.308 1138.64 456.786 C 1136.17 452.861 1130 445.41 1130.58 440.617 C 1131.78 439.665 1132.35 439.455 1133.89 439.434 C 1142.62 439.317 1146.73 433.426 1152.86 427.833 z"/>
<path transform="translate(0,0)" fill="rgb(51,51,47)" d="M 1177.4 511.195 C 1178.49 511.71 1179.37 512.469 1180.32 513.193 C 1182.43 517.712 1183.46 522.904 1183.8 527.877 C 1184.28 534.962 1184.75 539.516 1179.96 545.075 C 1179.28 544.631 1178.9 544.433 1178.32 543.784 C 1174.41 539.42 1172.38 522.895 1173.09 517.004 C 1173.5 513.63 1174.97 513.108 1177.4 511.195 z"/>
<path transform="translate(0,0)" fill="rgb(183,213,220)" d="M 1248.61 476.422 C 1252.68 476.367 1256.7 476.415 1260.72 477.09 A 34.1651 34.1651 0 0 1 1283.7 492.252 C 1290.48 502.627 1291.8 515.01 1289.05 526.92 C 1282.23 556.326 1259.27 569.19 1235.52 584.129 L 1215.39 595.76 C 1214.46 559.811 1211.05 527.325 1203.23 492.103 C 1217.58 483.962 1232.06 477.612 1248.61 476.422 z"/>
<path transform="translate(0,0)" fill="rgb(183,213,220)" d="M 1203.9 613.922 C 1204.27 615.934 1204.22 617.634 1204.03 619.647 A 266.071 266.071 0 0 1 1107.74 799.702 C 1065.68 834.461 1011.13 857.959 956.662 863.127 C 929.885 865.667 902.932 864.056 876.23 861.432 L 875.384 859.909 C 876.849 853.428 879.439 848.542 884.111 843.805 C 946.492 852.01 1015.32 838.362 1067.85 803.443 C 1126.37 764.537 1156.57 699.83 1169.85 633.005 A 773.902 773.902 0 0 1 1203.9 613.922 z"/>
<path transform="translate(0,0)" fill="rgb(183,213,220)" d="M 1150.41 518.779 L 1152.28 519.314 C 1155.27 524.488 1155.77 532.81 1156.7 538.737 C 1161.32 568.054 1162.71 595.045 1160.74 624.664 C 1142.28 635.048 1122.09 645.458 1102.06 652.358 C 1086.07 657.866 1070.69 659.696 1054.95 652.022 C 1050.05 648.265 1046.4 644.143 1043.71 638.561 C 1037.74 626.183 1035.72 610.496 1040.6 597.542 C 1053.99 562.001 1116.88 534.071 1150.41 518.779 z"/>
<path transform="translate(0,0)" fill="rgb(183,213,220)" d="M 1371.66 487.007 C 1381.21 490.767 1398.56 507.572 1403.75 505.902 C 1419.81 549.003 1438.72 591.795 1452.42 635.649 C 1449.77 646.648 1446.54 657.072 1442.19 667.522 C 1431.31 693.61 1384.6 787.883 1363.61 801.192 C 1343.31 814.068 1311.74 824.484 1288.99 836.074 C 1270.01 845.748 1251.04 855.819 1232.5 866.322 C 1220.21 873.287 1207.65 882.001 1194.55 887.225 C 1189.2 889.358 1183.42 889.168 1177.75 888.997 C 1175.27 888.844 1172.79 888.59 1170.32 888.377 C 1141.46 886.78 1083.7 879.055 1057.67 869.726 C 1049.36 866.747 1041.94 862.784 1035.11 857.182 C 1043.65 853.938 1051.95 849.244 1060.17 845.208 C 1087.34 852.004 1167.36 868.22 1192.92 863.125 C 1203.36 861.044 1236.67 834.272 1249.25 826.733 C 1283.1 806.458 1327.09 787.218 1364.29 773.29 C 1372.1 762.293 1378.31 749.187 1384.95 737.409 C 1400.62 709.588 1421.39 673.713 1432.98 644.3 C 1425.59 621.466 1416.07 599.04 1407.23 576.731 L 1371.66 487.007 z"/>
<path transform="translate(0,0)" fill="rgb(183,213,220)" d="M 1116.9 441.923 C 1122.34 445.716 1128 458.217 1131.59 464.193 A 519.26 519.26 0 0 0 1117.52 470.472 C 1058.44 498.158 995.772 538.026 972.806 602.454 C 968.472 614.613 965.239 629.547 967.47 642.475 C 969.939 656.79 988.593 695.671 994.934 710.819 C 1008.78 743.906 1021.26 777.983 1036.46 810.448 C 1028.97 813.937 1021.42 817.114 1013.72 820.117 C 1006.62 822.581 999.29 824.439 992.05 826.445 C 986.831 811.119 978.985 796.219 972.675 781.268 A 3830.01 3830.01 0 0 0 932.621 687.257 C 935.027 651.933 942.426 614.7 954.872 581.491 C 961.191 564.629 970.042 548.203 981.735 534.444 C 1010.23 500.913 1076.9 459.953 1116.9 441.923 z"/>
<path transform="translate(0,0)" fill="rgb(253,252,246)" d="M 324.625 1433.05 C 339.165 1446.19 355.455 1459.67 367.986 1474.7 L 324.891 1548.9 C 319.612 1558.09 312.916 1567.17 308.906 1576.97 C 306.809 1582.1 305.548 1587.73 306.852 1593.23 C 307.637 1596.54 309.527 1599.36 312.474 1601.11 C 315.569 1602.94 321.178 1604.57 324.747 1603.57 C 327.715 1602.74 328.945 1601.39 330.732 1599.04 C 338.889 1588.32 344.953 1574.73 351.435 1562.91 C 364.433 1539.2 377.452 1514.79 391.625 1491.79 C 405.361 1500.24 417.799 1512.1 430.691 1521.92 C 439.157 1528.36 450.799 1534.64 457.886 1542.31 C 450.756 1554.65 444.732 1569.43 436.489 1580.93 C 434.424 1583.81 432.155 1585.98 429.184 1587.91 C 415.732 1596.63 352.463 1626.03 337.754 1627.65 C 327.77 1628.75 316.196 1625.4 308.451 1619.01 C 303.028 1614.53 299.916 1608.88 297.885 1602.21 C 293.453 1587.66 293.39 1571.06 292.179 1555.93 L 287.53 1498.63 C 298.383 1476.23 312.025 1454.55 324.625 1433.05 z"/>
<path transform="translate(0,0)" fill="rgb(183,213,220)" d="M 912.605 376.342 C 913.423 376.248 914.241 376.142 915.063 376.085 C 958.607 373.053 1003.74 391.591 1038.62 416.501 C 1052.95 426.736 1066.15 438.569 1079.43 450.104 C 1056.35 463.197 1033.47 477.118 1012.38 493.246 C 1001.88 501.192 991.634 509.542 981.352 517.771 C 961.305 510.205 942.157 499.484 924.538 487.304 C 901.792 471.58 874.3 447.002 869.712 418.079 C 868.343 409.448 869.745 400.349 875.019 393.209 C 883.597 381.599 899.134 378.288 912.605 376.342 z"/>
<path transform="translate(0,0)" fill="rgb(183,213,220)" d="M 1134.35 473.809 L 1136.03 474.549 C 1138.91 479.321 1140.62 484.579 1142.55 489.784 C 1098.94 509.828 1033.98 536.646 1016.19 584.681 C 1010.47 600.129 1009.84 618.302 1017.02 633.376 C 1023.9 647.822 1036.37 658.211 1051.4 663.418 C 1089.11 676.485 1126.14 653.289 1159.22 637.539 C 1149.71 679.56 1134.51 716.66 1108.69 751.525 A 198.238 198.238 0 0 1 1043.92 806.493 C 1029.16 763.773 1010.19 722.39 992.996 680.61 C 987.595 667.485 979.126 653.22 976.563 639.254 C 974.723 629.227 977.979 617.648 981.129 608.166 C 1004.73 537.133 1072.17 504.693 1134.35 473.809 z"/>
<path transform="translate(0,0)" fill="rgb(183,213,220)" d="M 1257.55 431.395 C 1277.38 429.764 1298.33 432.246 1316.48 440.752 C 1331.11 447.607 1343.21 458.611 1352.23 471.955 C 1367.26 494.209 1378.56 529.968 1388.62 555.572 C 1400.29 585.251 1412.63 614.661 1423.55 644.627 C 1415.93 657.823 1409.45 671.648 1402.51 685.208 C 1388.78 712.013 1374.76 739.274 1359.36 765.136 C 1346.58 768.551 1333.51 775.415 1321.47 780.884 C 1289.61 795.364 1257.65 809.983 1228.12 828.897 C 1215.9 836.721 1205.33 847.396 1192.81 854.613 C 1192.54 854.77 1192.26 854.919 1191.99 855.072 C 1168.91 853.817 1146.64 851.29 1123.78 847.919 C 1105.59 845.153 1087.55 842.354 1069.7 837.859 C 1087.62 826.822 1105.16 815.208 1121.12 801.425 C 1178.38 751.987 1209.62 682.393 1215.2 607.643 C 1242.74 591.473 1276.17 576.777 1291.89 547.469 C 1299.85 532.633 1302.78 515.865 1297.6 499.524 C 1293.22 485.69 1283.59 474.969 1270.83 468.333 C 1245.59 455.203 1218.75 461.894 1193.1 469.914 C 1191 463.312 1188.12 457.17 1185.2 450.903 C 1208.86 441.959 1232.24 434.207 1257.55 431.395 z"/>
<path transform="translate(0,0)" fill="rgb(183,213,220)" d="M 872.213 870.73 C 909.717 874.864 945.018 875.865 982.401 869.197 C 989.352 877.753 996.437 886.031 1005.52 892.404 C 1039.25 916.055 1094.55 921.42 1134.77 927.845 L 1133.94 928.794 C 1125.9 937.892 1116.68 946.031 1108.05 954.569 C 1092.91 969.55 1077.86 984.945 1061.53 998.647 C 1022.2 1031.66 974.537 1063.16 931.254 1091.07 C 884.089 1121.48 834.965 1151.63 791.912 1187.74 C 701.915 1263.24 640.893 1370.11 648.108 1490.22 C 650.718 1533.68 664.541 1574.66 685.199 1612.72 C 690.246 1622.02 697.742 1630.71 702.05 1640.27 C 624.641 1632.17 565.759 1609.39 499.673 1568.12 C 488.623 1561.22 478.533 1552.99 467.633 1545.87 C 487.791 1508.03 509.954 1471.15 530.667 1433.59 C 542.368 1412.38 553.911 1391.08 566.302 1370.26 C 570.754 1362.78 574.413 1355.02 579.916 1348.21 C 571.914 1328.29 559.992 1310.25 552.451 1289.97 C 574.629 1289.61 596.573 1294.79 618.669 1296.12 C 626.55 1285.91 663.451 1225.79 664.552 1215.42 C 657.314 1206.21 641.525 1200.37 631.273 1194.83 C 651.944 1159.08 673.442 1123.85 693.566 1087.8 C 700.529 1091.01 722.296 1106.73 729.67 1103.79 C 733.287 1102.35 737.787 1094.95 739.96 1091.58 C 754.326 1069.29 767.216 1045.72 780.843 1022.94 L 872.213 870.73 z"/>
<path transform="translate(0,0)" fill="rgb(254,229,167)" d="M 1361.25 812.69 L 1363.67 813.639 C 1365.57 812.778 1367.46 811.948 1369.41 811.216 L 1368.48 811.803 L 1369.64 811.886 C 1368.83 814.312 1368.33 816.58 1367.7 819.037 C 1367.51 819.777 1367.11 820.846 1366.85 821.596 C 1368.36 824.316 1370.08 826.114 1372.33 828.256 C 1383.81 858.565 1398.1 887.545 1411.48 917.023 L 1460.71 1026.16 C 1468.72 1043.49 1478.02 1060.75 1485.27 1078.36 C 1486.58 1081.53 1487.59 1084.56 1487.63 1088.01 L 1486.89 1088.78 C 1476.68 1084.21 1466.95 1065.55 1461.86 1056.25 C 1446.85 1028.86 1435.75 999.42 1423.31 970.805 C 1403.77 925.837 1383.54 880.771 1361.65 836.889 C 1355.69 842.101 1348.81 846.204 1342.95 851.401 C 1348.93 873.216 1359.28 894.207 1368.34 914.875 C 1386.11 955.433 1405.14 995.291 1423.43 1035.6 C 1435.9 1063.08 1449.82 1090.56 1461.11 1118.49 C 1467.81 1135.08 1471.99 1152.52 1479.65 1168.73 C 1492.74 1196.42 1508.26 1223.08 1521.83 1250.57 L 1666.74 1544.9 C 1680.59 1573.12 1694.16 1601.65 1710.47 1628.55 C 1714.02 1634.4 1724.33 1647.33 1723.8 1653.74 C 1720.78 1655.84 1717.33 1652.97 1715.03 1654.97 C 1711.76 1657.81 1710 1662.09 1707.11 1665.29 C 1715.03 1676.91 1724.09 1686.39 1733.89 1696.41 C 1747.69 1665.24 1740.21 1632.46 1728.39 1601.88 C 1712.2 1560 1688.07 1519.94 1667.3 1480.13 C 1654.91 1456.38 1643.56 1432.06 1630.73 1408.55 C 1618.07 1385.36 1603.98 1362.97 1591.96 1339.42 C 1566.15 1288.8 1542.52 1235.28 1521.9 1182.35 C 1518.7 1174.14 1509.52 1157.49 1510.44 1149.22 C 1513.95 1151.23 1516.62 1156.28 1518.51 1159.81 C 1526.41 1174.58 1532.51 1190.92 1539.32 1206.24 C 1555.69 1243.08 1571.76 1280.56 1589.99 1316.5 C 1606.32 1348.68 1625.67 1379.26 1642.81 1411.01 C 1658.82 1440.69 1672.72 1471.5 1688.43 1501.36 C 1709.32 1541.07 1734.92 1585.85 1746.59 1629.17 C 1754.39 1658.1 1749.95 1684.81 1746.21 1713.83 C 1744.98 1723.34 1744.43 1732.93 1743.2 1742.43 C 1724.94 1754.72 1697.47 1747.47 1677.12 1743.49 C 1665.92 1741.29 1654.51 1739.15 1643.49 1736.16 C 1636.99 1724.47 1612.25 1675.71 1604.19 1669.74 C 1591.65 1671.21 1553.89 1696.52 1539.35 1703.46 A 3560.62 3560.62 0 0 0 1515.06 1660.23 C 1523.11 1657.45 1536.35 1656.55 1542.21 1650.55 C 1543.69 1646.59 1542.58 1643.94 1540.94 1640.28 A 272.656 272.656 0 0 0 1529.55 1618.33 C 1513.48 1626.64 1498.64 1637.15 1482.37 1645.16 C 1470.54 1623.93 1456.81 1602.88 1446.43 1580.97 C 1461.72 1572.61 1477.32 1564.32 1492.23 1555.31 C 1482.75 1531.62 1466.75 1510.29 1456.63 1486.81 C 1481.25 1472.09 1507.84 1460.11 1532.05 1444.9 C 1526.54 1426.6 1515.73 1407.83 1507.47 1390.54 C 1488.32 1350.47 1468.06 1310.97 1450.78 1270.06 C 1438.88 1270.31 1421.49 1272.43 1411.77 1264.46 C 1403.67 1257.81 1286.74 1006.31 1271.19 973.631 C 1263.01 956.446 1252.53 927.11 1242.25 912.866 C 1239.35 908.859 1233.57 906.966 1229.1 905.306 C 1210.79 909.509 1191.55 914.552 1172.62 913.895 C 1168.04 910.3 1158.74 914.65 1153.09 911.629 C 1153.16 905.554 1161.95 903.315 1163.28 897.164 C 1175.23 898.042 1188.65 898.451 1200.19 894.696 C 1212.01 890.852 1223.18 882.012 1233.94 875.82 C 1244.82 869.556 1256.16 863.934 1267.23 858.012 C 1297.84 841.648 1329.75 827.25 1361.25 812.69 z"/>
<path transform="translate(0,0)" fill="rgb(51,51,47)" d="M 1688.61 1713.5 C 1690.3 1713.72 1692.16 1713.87 1693.77 1714.49 C 1696.29 1715.47 1697.71 1717.16 1698.84 1719.55 C 1698.92 1723.01 1698.7 1723.25 1696.78 1726.17 C 1695.16 1726.25 1692.55 1726.68 1690.98 1726.15 C 1688.35 1725.26 1687.78 1724.3 1686.46 1722.09 C 1686.19 1718.47 1686.95 1716.7 1688.61 1713.5 z"/>
<path transform="translate(0,0)" fill="rgb(61,62,60)" d="M 1417.9 1060.17 C 1419.88 1060.81 1421.23 1061.65 1422.6 1063.28 C 1425.52 1066.77 1427.99 1072.61 1427.62 1077.25 C 1427.45 1079.38 1426.12 1079.78 1424.59 1081.13 C 1423.44 1080.54 1422.28 1079.91 1421.33 1079 C 1417.68 1075.47 1414.23 1069.37 1414.69 1064.15 C 1414.86 1062.19 1416.52 1061.42 1417.9 1060.17 z"/>
<path transform="translate(0,0)" fill="rgb(51,51,47)" d="M 1706.08 1682.72 C 1707.01 1682.92 1707.42 1682.95 1708.34 1683.44 C 1710.75 1684.7 1711.43 1686.17 1712.07 1688.64 C 1710.18 1693.76 1707.16 1695.48 1702.5 1697.92 C 1699.64 1697.17 1698.39 1696.75 1696.2 1694.6 C 1695.72 1692.71 1695.26 1692.27 1696.03 1690.38 C 1697.85 1685.87 1701.85 1684.4 1706.08 1682.72 z"/>
<path transform="translate(0,0)" fill="rgb(61,62,60)" d="M 1720.77 1698.82 C 1723.49 1699.19 1725.93 1699.76 1728.57 1700.52 C 1730.27 1702.5 1731.12 1703.2 1730.72 1706.05 C 1729.61 1713.97 1717.05 1723.99 1710.92 1728.48 C 1709.37 1728.75 1707.04 1729.22 1705.46 1728.84 C 1702.95 1728.24 1702.78 1727.58 1701.76 1725.45 C 1702.65 1717.86 1715.93 1704.93 1720.77 1698.82 z"/>
<path transform="translate(0,0)" fill="rgb(61,62,60)" d="M 1333.88 876.562 C 1335.17 877.181 1335.82 877.886 1336.7 879.069 C 1340.84 884.646 1343.67 893.413 1346.59 899.856 A 3485.38 3485.38 0 0 1 1371.55 956.152 C 1381.99 979.894 1394.07 1003.06 1403.58 1027.2 C 1404.92 1030.6 1407.07 1034.86 1406.19 1038.44 L 1401.87 1040.92 C 1400.46 1039.94 1400.95 1040.22 1399.63 1039.48 C 1396.99 1037.99 1333.59 896.154 1328.05 881.981 C 1329.39 879.2 1331.38 878.32 1333.88 876.562 z"/>
<path transform="translate(0,0)" fill="rgb(61,62,60)" d="M 1441.21 1105.67 C 1443.09 1105.61 1444.64 1105.45 1446.46 1106.03 C 1450.98 1107.48 1460.79 1145.14 1463.04 1152 C 1470.35 1174.31 1482.42 1193.59 1493.28 1214.2 C 1505.13 1236.66 1516.3 1259.53 1527.67 1282.23 L 1664.41 1558.35 C 1678.2 1586.69 1694.45 1614.3 1707.33 1643 C 1709.24 1647.26 1710.02 1649.53 1708.29 1654.01 C 1705.67 1654.63 1703.61 1654.9 1700.88 1654.86 C 1700.03 1654.1 1699.8 1653.96 1699.05 1652.89 C 1695.6 1647.96 1693.02 1640.86 1690.28 1635.44 A 4603.77 4603.77 0 0 1 1668.87 1592.88 A 13489.8 13489.8 0 0 1 1597.49 1447.99 L 1549.96 1352.8 A 8041.07 8041.07 0 0 0 1511.1 1273.22 L 1480.84 1214.11 C 1474.2 1201.36 1466.79 1188.6 1461.14 1175.38 C 1456.34 1164.14 1438.47 1115.39 1441.21 1105.67 z"/>
<path transform="translate(0,0)" fill="rgb(183,213,220)" d="M 492.731 1148.77 C 498.244 1134.55 506.272 1121.32 513.717 1108.05 L 542.094 1057.17 L 664.787 838.579 A 3722.58 3722.58 0 0 1 690.315 793.674 C 695.655 784.333 701.987 774.702 705.708 764.579 C 707.402 759.973 707.837 757.019 705.837 752.404 C 701.495 742.383 691.964 733.829 685.146 725.331 C 679.029 717.709 672.978 709.395 668.019 700.969 C 627.674 632.408 617.914 541.992 645.086 467.038 C 670.399 397.209 722.233 337.359 789.949 305.944 C 855.629 275.474 936.588 273.537 1004.36 298.408 C 1064.48 320.471 1118.32 361.484 1151.77 416.431 C 1147.12 419.834 1142.66 423.13 1138.59 427.23 C 1088.94 359.877 1033.81 318.114 949.497 305.275 C 879.851 294.669 811.213 308.944 754.004 350.965 C 698.531 391.711 663.325 453.003 653.234 520.807 A 267.409 267.409 0 0 0 703.696 722.904 C 713.819 736.456 744.947 771.299 761.476 774.146 C 765.399 774.821 768.855 773.806 771.933 771.332 C 776.005 768.06 779.219 762.537 779.791 757.312 C 780.033 755.099 780.008 752.902 778.616 751.061 C 774.035 745.001 750.262 731.398 741.364 723.312 A 223.964 223.964 0 0 1 669.328 549.467 C 671.677 485.934 694.896 427.019 742.163 383.497 A 235.245 235.245 0 0 1 913.928 322.035 C 984.151 325.221 1052.51 367.097 1098.85 418.248 L 1111.91 432.804 C 1103.86 436.704 1095.85 440.747 1087.64 444.294 C 1050.23 410.976 1016.71 383.984 966.747 371.475 C 950.246 367.344 933.571 364.959 916.542 366.019 C 899.548 367.078 880.32 371.436 868.867 385.051 A 43.4802 43.4802 0 0 0 859.131 417.49 C 862.422 447.871 889.036 474.597 911.92 492.206 C 930.345 506.383 951.259 515.607 970.062 528.805 C 961.686 538.582 952.839 548.326 945.346 558.8 C 923.52 589.306 909.31 625.627 901.886 662.278 C 899.908 672.048 896.773 683.433 897.536 693.412 C 899.069 713.474 944.779 813.08 955.116 834.423 C 938.254 835.754 921.619 836.375 904.712 835.244 C 898.329 834.818 884.007 832.017 878.247 834.066 C 873.632 835.709 868.079 842.435 864.936 846.138 C 859.639 852.377 828.728 904.491 829.124 909.476 C 829.325 911.998 831.449 915.03 832.694 917.201 C 810.803 955.627 787.313 993.043 764.534 1030.94 C 752.125 1051.59 740.876 1073.82 727.209 1093.62 C 715.976 1087.41 704.679 1080.43 692.422 1076.47 C 689.31 1079.11 686.738 1081.66 684.453 1085.06 C 674.692 1099.56 666.814 1115.45 658.013 1130.55 C 648.904 1146.18 623.859 1182.06 620.664 1197.79 C 624.23 1206.22 646.049 1214.49 654.148 1219.63 C 640.281 1240.76 628.42 1263.04 614.74 1284.28 C 599.505 1282.76 555.398 1274.8 543.931 1283.75 C 540.975 1286.06 539.261 1289.39 538.836 1293.1 C 536.881 1310.17 553.368 1341.34 561.948 1355.88 A 8544.78 8544.78 0 0 1 495.121 1476.54 C 482.83 1498.52 470.98 1520.79 457.886 1542.31 C 450.799 1534.64 439.157 1528.36 430.691 1521.92 C 417.799 1512.1 405.361 1500.24 391.625 1491.79 C 377.452 1514.79 364.433 1539.2 351.435 1562.91 C 344.953 1574.73 338.889 1588.32 330.732 1599.04 C 328.945 1601.39 327.715 1602.74 324.747 1603.57 C 321.178 1604.57 315.569 1602.94 312.474 1601.11 C 309.527 1599.36 307.637 1596.54 306.852 1593.23 C 305.548 1587.73 306.809 1582.1 308.906 1576.97 C 312.916 1567.17 319.612 1558.09 324.891 1548.9 L 367.986 1474.7 C 355.455 1459.67 339.165 1446.19 324.625 1433.05 A 3825.39 3825.39 0 0 0 367.362 1360.93 C 380.4 1361.88 400.096 1363.68 410.854 1354.61 C 414.506 1351.53 416.499 1347.26 416.768 1342.52 C 417.503 1329.59 407.636 1314.77 402.339 1303.23 A 1575.1 1575.1 0 0 0 435.953 1246.55 C 442.773 1234.51 448.684 1220.53 457.51 1209.92 L 458.828 1210.4 C 469.66 1214.41 482.805 1225.21 494.675 1219.73 C 498.604 1217.91 501.523 1214.16 502.798 1210.07 C 507.541 1194.88 491.889 1176.05 486.855 1162.17 C 491.13 1160.31 495.662 1158.47 499.413 1155.66 C 507.001 1149.99 519.037 1137.21 522.664 1128.55 C 523.075 1127.57 523.112 1127.24 523.399 1126.14 C 522.137 1123.53 521.994 1123.25 519.521 1121.76 C 512.257 1123.23 499.231 1142.64 492.731 1148.77 z"/>
<path transform="translate(0,0)" fill="rgb(61,62,60)" d="M 367.986 1474.7 C 399.475 1420.36 428.891 1365.03 459.302 1310.11 L 643.063 980.327 L 712.804 856.396 C 722.869 838.74 732.336 819.781 743.545 802.897 C 745.485 799.976 748.169 796.267 751.735 795.292 C 754.999 794.399 758.023 795.763 760.635 797.601 C 764.726 800.478 768.613 804.064 772.138 807.617 C 746.34 855.37 718.671 902.091 692.37 949.559 L 468.887 1354.38 L 406.944 1465.47 C 401.998 1474.34 396.306 1482.77 391.625 1491.79 C 377.452 1514.79 364.433 1539.2 351.435 1562.91 C 344.953 1574.73 338.889 1588.32 330.732 1599.04 C 328.945 1601.39 327.715 1602.74 324.747 1603.57 C 321.178 1604.57 315.569 1602.94 312.474 1601.11 C 309.527 1599.36 307.637 1596.54 306.852 1593.23 C 305.548 1587.73 306.809 1582.1 308.906 1576.97 C 312.916 1567.17 319.612 1558.09 324.891 1548.9 L 367.986 1474.7 z"/>
<path transform="translate(0,0)" fill="rgb(177,209,218)" d="M 1134.77 927.845 C 1169.02 933.471 1206.34 933.76 1240.88 930.926 C 1270.18 995.548 1301.74 1059.11 1331.22 1123.62 A 3669.24 3669.24 0 0 0 1382.98 1232.29 C 1390.02 1246.78 1396.02 1263.37 1404.76 1276.82 C 1409.66 1284.36 1418.45 1290.17 1426.73 1293.3 C 1434.92 1296.38 1442.98 1295.45 1450.85 1297.68 C 1451.99 1298.01 1452.89 1299.17 1453.4 1300.15 C 1453.56 1300.46 1453.68 1300.8 1453.82 1301.13 C 1468 1334.09 1485.14 1366.34 1500.78 1398.66 C 1507.55 1412.64 1514.65 1426.47 1520.12 1441.04 A 1331.92 1331.92 0 0 1 1476.88 1465.69 C 1469.44 1469.69 1460.16 1473.11 1453.44 1478.12 C 1451.04 1479.91 1449.34 1481.95 1448.57 1484.91 C 1445.98 1494.97 1474.55 1538.61 1480.4 1551.1 C 1471.17 1556 1440.68 1570.82 1437.99 1580.09 C 1437.16 1582.94 1437.84 1585.86 1438.96 1588.51 C 1441.84 1595.29 1446.7 1602.07 1450.51 1608.44 A 539.214 539.214 0 0 1 1467.86 1639.14 C 1451.71 1645.33 1434.87 1649.88 1418.31 1654.83 C 1391.26 1662.92 1364.36 1670.92 1337.57 1679.83 A 5452.44 5452.44 0 0 1 1233.47 1713.11 C 1119.14 1748.87 1002.14 1777.83 882.713 1749.52 C 861.019 1744.37 839.845 1738.23 819.433 1729.12 A 323.153 323.153 0 0 1 717.025 1656.39 C 712.783 1651.92 706.5 1646.31 703.546 1641 L 702.05 1640.27 C 697.742 1630.71 690.246 1622.02 685.199 1612.72 C 664.541 1574.66 650.718 1533.68 648.108 1490.22 C 640.893 1370.11 701.915 1263.24 791.912 1187.74 C 834.965 1151.63 884.089 1121.48 931.254 1091.07 C 974.537 1063.16 1022.2 1031.66 1061.53 998.647 C 1077.86 984.945 1092.91 969.55 1108.05 954.569 C 1116.68 946.031 1125.9 937.892 1133.94 928.794 L 1134.77 927.845 z"/>
<path transform="translate(0,0)" fill="rgb(254,229,167)" d="M 703.546 1641 C 756.932 1644.86 810.12 1641.19 861.555 1625.72 C 947.894 1599.76 1024.06 1553.85 1101.28 1508.66 L 1239.3 1428.23 C 1263.21 1414.09 1287.8 1401.31 1311.9 1387.54 C 1321.43 1382.1 1330.23 1375.49 1339.65 1369.9 C 1377.81 1347.23 1416.49 1325.16 1453.82 1301.13 C 1468 1334.09 1485.14 1366.34 1500.78 1398.66 C 1507.55 1412.64 1514.65 1426.47 1520.12 1441.04 A 1331.92 1331.92 0 0 1 1476.88 1465.69 C 1469.44 1469.69 1460.16 1473.11 1453.44 1478.12 C 1451.04 1479.91 1449.34 1481.95 1448.57 1484.91 C 1445.98 1494.97 1474.55 1538.61 1480.4 1551.1 C 1471.17 1556 1440.68 1570.82 1437.99 1580.09 C 1437.16 1582.94 1437.84 1585.86 1438.96 1588.51 C 1441.84 1595.29 1446.7 1602.07 1450.51 1608.44 A 539.214 539.214 0 0 1 1467.86 1639.14 C 1451.71 1645.33 1434.87 1649.88 1418.31 1654.83 C 1391.26 1662.92 1364.36 1670.92 1337.57 1679.83 A 5452.44 5452.44 0 0 1 1233.47 1713.11 C 1119.14 1748.87 1002.14 1777.83 882.713 1749.52 C 861.019 1744.37 839.845 1738.23 819.433 1729.12 A 323.153 323.153 0 0 1 717.025 1656.39 C 712.783 1651.92 706.5 1646.31 703.546 1641 z"/>
</svg>